<svg xmlns="http://www.w3.org/2000/svg" viewBox="0 0 1200 800" preserveAspectRatio="xMidYMid slice"><defs><linearGradient id="g" x1="0" y1="0" x2="0" y2="1"><stop offset="0" stop-color="#84D4A7"/><stop offset="1" stop-color="#DBF4E5"/></linearGradient></defs><rect width="1200" height="800" fill="url(#g)"/><circle cx="600" cy="200" r="110.00000000000001" fill="#FFF8EC" opacity="0.18"/><circle cx="600" cy="200" r="75" fill="#FFF8EC" opacity="0.28"/><circle cx="600" cy="200" r="50" fill="#FFF8EC" opacity="0.7"/><path d="M0 800 L0 470 C120 470 120 489 240 489 C360 489 360 495 480 495 C600 495 600 402 720 402 C840 402 840 495 960 495 C1080 495 1080 404 1200 404 L1200 800Z" fill="#4DB87D" opacity="0.8"/><path d="M20 -10 Q60 328.7632929161191 -10 617.3547977115959" stroke="#14412A" stroke-width="8.75623466167599" fill="none" opacity=".6"/><path d="M110 -10 Q150 230.55446879006922 80 574.3763845413923" stroke="#14412A" stroke-width="7.46077066892758" fill="none" opacity=".6"/><path d="M200 -10 Q240 290.47015057876706 170 524.605716811493" stroke="#14412A" stroke-width="9.839677350595593" fill="none" opacity=".6"/><path d="M290 -10 Q330 345.2802655752748 260 531.2702788971364" stroke="#14412A" stroke-width="7.745845518540591" fill="none" opacity=".6"/><path d="M380 -10 Q420 230.93855381011963 350 493.4943839441985" stroke="#14412A" stroke-width="10.099449346773326" fill="none" opacity=".6"/><path d="M470 -10 Q510 378.01152360625565 440 528.5442972555757" stroke="#14412A" stroke-width="11.808087949175388" fill="none" opacity=".6"/><path d="M560 -10 Q600 367.0002999715507 530 471.52374000288546" stroke="#14412A" stroke-width="7.516256924718618" fill="none" opacity=".6"/><path d="M650 -10 Q690 299.1341698449105 620 601.2746942229569" stroke="#14412A" stroke-width="10.728451856877655" fill="none" opacity=".6"/><path d="M740 -10 Q780 258.11590384691954 710 472.06438831053674" stroke="#14412A" stroke-width="11.194985722191632" fill="none" opacity=".6"/><path d="M830 -10 Q870 300.85462876595557 800 548.1602467596531" stroke="#14412A" stroke-width="6.958536183927208" fill="none" opacity=".6"/><path d="M920 -10 Q960 228.59864244237542 890 452.52498951740563" stroke="#14412A" stroke-width="10.661701625213027" fill="none" opacity=".6"/><path d="M1010 -10 Q1050 277.13718502782285 980 470.12203140184283" stroke="#14412A" stroke-width="8.145982410293072" fill="none" opacity=".6"/><path d="M1100 -10 Q1140 292.9300304502249 1070 456.14875513128936" stroke="#14412A" stroke-width="6.115455119870603" fill="none" opacity=".6"/><path d="M1190 -10 Q1230 378.3270150888711 1160 472.00439777225256" stroke="#14412A" stroke-width="9.522463597822934" fill="none" opacity=".6"/><path d="M200 700 Q214 574 242 490" stroke="#082417" stroke-width="9.799999999999999" fill="none" stroke-linecap="round"/><path d="M242 490 Q195.9550615814905 434 149.910123162981 505.8468719737625" stroke="#082417" stroke-width="8.399999999999999" fill="none" stroke-linecap="round"/><path d="M242 490 Q217.5 434 193.00000000000003 476.5025773880714" stroke="#082417" stroke-width="8.399999999999999" fill="none" stroke-linecap="round"/><path d="M242 490 Q250.50876070567958 434 259.01752141135916 469.8507658313164" stroke="#082417" stroke-width="8.399999999999999" fill="none" stroke-linecap="round"/><path d="M242 490 Q279.53617771282995 434 317.07235542565985 489.0038938575538" stroke="#082417" stroke-width="8.399999999999999" fill="none" stroke-linecap="round"/><path d="M242 490 Q291 434 340 525" stroke="#082417" stroke-width="8.399999999999999" fill="none" stroke-linecap="round"/><path d="M1000 720 Q1016 576 1048 480" stroke="#082417" stroke-width="11.200000000000001" fill="none" stroke-linecap="round"/><path d="M1048 480 Q995.3772132359891 416 942.7544264719783 498.11071082715716" stroke="#082417" stroke-width="9.600000000000001" fill="none" stroke-linecap="round"/><path d="M1048 480 Q1020 416 992 464.5743741577959" stroke="#082417" stroke-width="9.600000000000001" fill="none" stroke-linecap="round"/><path d="M1048 480 Q1057.724297949348 416 1067.448595898696 456.9723038072187" stroke="#082417" stroke-width="9.600000000000001" fill="none" stroke-linecap="round"/><path d="M1048 480 Q1090.8984888146629 416 1133.7969776293255 478.86159298006146" stroke="#082417" stroke-width="9.600000000000001" fill="none" stroke-linecap="round"/><path d="M1048 480 Q1104 416 1160 520" stroke="#082417" stroke-width="9.600000000000001" fill="none" stroke-linecap="round"/><path d="M470 640 L600 530 L730 640Z" fill="#7D6248"/><rect x="510" y="640" width="180" height="60" fill="#3D3025"/><path d="M0 800 L0 728 L150 717 L300 704 L450 733 L600 738 L750 723 L900 693 L1050 712 L1200 734 L1200 800Z" fill="#082417" opacity="1"/></svg>