<svg xmlns="http://www.w3.org/2000/svg" viewBox="0 0 1200 800" preserveAspectRatio="xMidYMid slice"><defs><linearGradient id="g" x1="0" y1="0" x2="0" y2="1"><stop offset="0" stop-color="#C9B6F2"/><stop offset="1" stop-color="#FBBA62"/></linearGradient></defs><rect width="1200" height="800" fill="url(#g)"/><circle cx="930" cy="260" r="154" fill="#FFF8EC" opacity="0.18"/><circle cx="930" cy="260" r="105" fill="#FFF8EC" opacity="0.28"/><circle cx="930" cy="260" r="70" fill="#FFF8EC" opacity="0.9"/><path d="M0 800 L0 536 C120 536 120 504 240 504 C360 504 360 535 480 535 C600 535 600 500 720 500 C840 500 840 527 960 527 C1080 527 1080 543 1200 543 L1200 800Z" fill="#84D4A7" opacity="0.8"/><path d="M0 800 L0 604 C120 604 120 577 240 577 C360 577 360 562 480 562 C600 562 600 578 720 578 C840 578 840 618 960 618 C1080 618 1080 564 1200 564 L1200 800Z" fill="#4DB87D" opacity="0.8"/><path d="M0 690 H1200" stroke="#3D3025" stroke-width="10"/><path d="M0 720 H1200" stroke="#3D3025" stroke-width="6" opacity=".6"/><g><rect x="150" y="560" width="270" height="110" rx="14" fill="#6B4FB3"/><rect x="170" y="585" width="44" height="40" rx="6" fill="#FDD99C"/><rect x="232" y="585" width="44" height="40" rx="6" fill="#FDD99C"/><rect x="294" y="585" width="44" height="40" rx="6" fill="#FDD99C"/><rect x="356" y="585" width="44" height="40" rx="6" fill="#FDD99C"/><circle cx="200" cy="680" r="16" fill="#261D16"/><circle cx="390" cy="680" r="16" fill="#261D16"/></g><g><rect x="450" y="560" width="270" height="110" rx="14" fill="#1F7D4A"/><rect x="470" y="585" width="44" height="40" rx="6" fill="#FDD99C"/><rect x="532" y="585" width="44" height="40" rx="6" fill="#FDD99C"/><rect x="594" y="585" width="44" height="40" rx="6" fill="#FDD99C"/><rect x="656" y="585" width="44" height="40" rx="6" fill="#FDD99C"/><circle cx="500" cy="680" r="16" fill="#261D16"/><circle cx="690" cy="680" r="16" fill="#261D16"/></g><g><rect x="750" y="560" width="270" height="110" rx="14" fill="#C0392B"/><rect x="770" y="585" width="44" height="40" rx="6" fill="#FDD99C"/><rect x="832" y="585" width="44" height="40" rx="6" fill="#FDD99C"/><rect x="894" y="585" width="44" height="40" rx="6" fill="#FDD99C"/><rect x="956" y="585" width="44" height="40" rx="6" fill="#FDD99C"/><circle cx="800" cy="680" r="16" fill="#261D16"/><circle cx="990" cy="680" r="16" fill="#261D16"/></g></svg>